<svg xmlns="http://www.w3.org/2000/svg" viewBox="0 0 1200 400" width="100%" height="100%">
    <defs>
        <linearGradient id="bgGrad" x1="0%" y1="0%" x2="100%" y2="100%">
            <stop offset="0%" stop-color="#0f172a" />
            <stop offset="50%" stop-color="#1e293b" />
            <stop offset="100%" stop-color="#020617" />
        </linearGradient>
        
        <linearGradient id="textGrad" x1="0%" y1="0%" x2="100%" y2="0%">
            <stop offset="0%" stop-color="#38bdf8" />
            <stop offset="100%" stop-color="#818cf8" />
        </linearGradient>
        
        <pattern id="grid" width="40" height="40" patternUnits="userSpaceOnUse">
            <path d="M 40 0 L 0 0 0 40" fill="none" stroke="#334155" stroke-width="0.5" stroke-opacity="0.5"/>
        </pattern>
        
        <filter id="glow" x="-20%" y="-20%" width="140%" height="140%">
            <feGaussianBlur stdDeviation="15" result="blur" />
            <feComposite in="SourceGraphic" in2="blur" operator="over" />
        </filter>
    </defs>
    
    <!-- Background -->
    <rect width="1200" height="400" fill="url(#bgGrad)" />
    <rect width="1200" height="400" fill="url(#grid)" />
    
    <!-- Glowing Orbs -->
    <circle cx="150" cy="350" r="100" fill="#38bdf8" opacity="0.1" filter="url(#glow)" />
    <circle cx="1050" cy="50" r="150" fill="#818cf8" opacity="0.1" filter="url(#glow)" />
    
    <!-- CUIS Logo / Monogram -->
    <g transform="translate(100, 150)">
        <rect x="0" y="0" width="80" height="80" rx="20" fill="url(#textGrad)" opacity="0.1" />
        <path d="M 25 25 L 55 25 L 55 35 L 35 35 L 35 45 L 55 45 L 55 55 L 25 55 Z" fill="url(#textGrad)" />
    </g>
    
    <!-- Text Content -->
    <g font-family="system-ui, -apple-system, sans-serif">
        <text x="210" y="180" font-size="48" font-weight="800" fill="#ffffff" letter-spacing="-1">
            CREDIT UNDERWRITING INTELLIGENCE SUITE
        </text>
        
        <text x="210" y="225" font-size="24" font-weight="600" fill="url(#textGrad)">
            Enterprise Credit Decision Support Platform
        </text>
        
        <text x="210" y="270" font-size="16" font-weight="400" fill="#94a3b8" letter-spacing="1.5">
            FINANCIAL PARSING • BANKING ANALYTICS • RISK RULES • CAM AUTOMATION
        </text>
    </g>
    
    <!-- Decorative Lines -->
    <path d="M 210 320 L 1100 320" stroke="#334155" stroke-width="1" />
    <path d="M 210 320 L 400 320" stroke="url(#textGrad)" stroke-width="3" filter="url(#glow)" />
    
</svg>
